# xmcd
#
# Track frame offsets:
#	150
#	16295
#	29015
#	46642
#	60670
#	78616
#	97646
#	113442
#	129295
#	145153
#	170119
#	186086
#	201720
#	219718
#	240777
#
# Disc length: 3458 seconds
#
# Revision: 1
# Processed by: cddbd v1.5.2PL0 Copyright (c) Steve Scherf et al.
# Submitted via: audiograbber 1.83.01
#
DISCID=c60d800f
DTITLE=JonesTM - HC200803
DYEAR=2008
DGENRE=Country
TTITLE0=Zane Lewis - Come With Me
TTITLE1=Big and Rich - Loud [Radio Edit]
TTITLE2=Eagles - Busy Being Fabulous
TTITLE3=Sammy Sadler - Trying To Get The Girl
TTITLE4=Shannon Walker - That's Why God Made Me
TTITLE5=Cross Canadian Ragweed - Cry Lonely [Album Version]
TTITLE6=Mary J. Blige - Work That [Amended]
TTITLE7=Darren Motamedy - Love You Just So Much [No Vox]
TTITLE8=Darren Motamedy - Love You Just So Much [With Vox]
TTITLE9=Brian Hughes - While The World Slowly Turns [Radio Edit With Audience]
TTITLE10=Miles Stiebel - And I Love Her [Album Version]
TTITLE11=Chris Geith - Waves Of Life [Album Version]
TTITLE12=Eric Bolvin - That's The Way Of The World
TTITLE13=Nils - Dreamin' [Album Version]
TTITLE14=Airborne - Festival At Sunset
EXTD=
EXTT0=
EXTT1=
EXTT2=
EXTT3=
EXTT4=
EXTT5=
EXTT6=
EXTT7=
EXTT8=
EXTT9=
EXTT10=
EXTT11=
EXTT12=
EXTT13=
EXTT14=
PLAYORDER=
